# xmcd CD database file
#
# Track frame offsets:
#	150
#	17963
#	36249
#	56275
#	74575
#	95960
#	122059
#	140196
#	161746
#	177634
#	200897
#	223803
#	249216
#
# Disc length: 3609 seconds
#
# Revision: 0
# Processed by: cddbd v1.5.1PL2 Copyright (c) Steve Scherf et al.
# Submitted via: Feurio! 1.68 - http://www.feurio.com
#
DISCID=d50e170d
DTITLE=Diana Krall - The Girl In the Other Room
DYEAR=1900
DGENRE=Blues
TTITLE0=Stop This World
TTITLE1=The Girl In The Other Room
TTITLE2=Temptation
TTITLE3=Almost Blue
TTITLE4=I've Changed My Adress
TTITLE5=Love Me Like A Man
TTITLE6=I'm Pulling Through
TTITLE7=Black Crow
TTITLE8=Narrow Daylight
TTITLE9=Abandoned Masquerade
TTITLE10=I'm Coming Through
TTITLE11=Departure Bay
TTITLE12=I'll Never Be The Same
EXTD=
EXTT0=
EXTT1=
EXTT2=
EXTT3=
EXTT4=
EXTT5=
EXTT6=
EXTT7=
EXTT8=
EXTT9=
EXTT10=
EXTT11=
EXTT12=
PLAYORDER=
